<svg xmlns="http://www.w3.org/2000/svg" version="1.1" xmlns:xlink="http://www.w3.org/1999/xlink" width="32" height="32"><svg xmlns="http://www.w3.org/2000/svg" version="1.1" xmlns:xlink="http://www.w3.org/1999/xlink" width="32" height="32"><svg width="32" height="32" viewBox="0 0 32 32" fill="none" xmlns="http://www.w3.org/2000/svg">
<g clip-path="url(#clip0_121_449)">
<path d="M0 8C0 3.58172 3.58172 0 8 0H24C28.4183 0 32 3.58172 32 8V24C32 28.4183 28.4183 32 24 32H8C3.58172 32 0 28.4183 0 24V8Z" fill="#040404"></path>
<g filter="url(#filter0_f_121_449)">
<path d="M4 16C4 13.9627 5.36928 12.1798 7.33759 11.6542L36 4V28L7.33759 20.3458C5.36928 19.8202 4 18.0373 4 16Z" fill="url(#paint0_linear_121_449)"></path>
</g>
</g>
<defs>
<filter id="filter0_f_121_449" x="-4" y="-4" width="48" height="40" filterUnits="userSpaceOnUse" color-interpolation-filters="sRGB">
<feFlood flood-opacity="0" result="BackgroundImageFix"></feFlood>
<feBlend mode="normal" in="SourceGraphic" in2="BackgroundImageFix" result="shape"></feBlend>
<feGaussianBlur stdDeviation="4" result="effect1_foregroundBlur_121_449"></feGaussianBlur>
</filter>
<linearGradient id="paint0_linear_121_449" x1="4" y1="16" x2="36" y2="16" gradientUnits="userSpaceOnUse">
<stop stop-color="#FBE26B"></stop>
<stop offset="1" stop-color="#FBE26B" stop-opacity="0"></stop>
</linearGradient>
<clipPath id="clip0_121_449">
<path d="M0 8C0 3.58172 3.58172 0 8 0H24C28.4183 0 32 3.58172 32 8V24C32 28.4183 28.4183 32 24 32H8C3.58172 32 0 28.4183 0 24V8Z" fill="white"></path>
</clipPath>
</defs>
</svg></svg><style>@media (prefers-color-scheme: light) { :root { filter: none; } }
@media (prefers-color-scheme: dark) { :root { filter: none; } }
</style></svg>